name ./resultDataOpenSim/trcMotMarkerGrf/sub10/grf-01-08.mot
datacolumns 19
datarows 30
range 0.43200000 0.54800000
endheader

                time	     ground_force_vx	     ground_force_vy	     ground_force_vz	     ground_force_px	     ground_force_py	     ground_force_pz	   l_ground_force_vx	   l_ground_force_vy	   l_ground_force_vz	   l_ground_force_px	   l_ground_force_py	   l_ground_force_pz	     ground_torque_x	     ground_torque_y	     ground_torque_z	   l_ground_torque_x	   l_ground_torque_y	   l_ground_torque_z	
          0.43200000	         51.57449831	        460.68726668	         -8.62542049	         -0.84101203	          0.00000000	         -0.08151107	          0.00000000	          0.00000000	          0.00000000	          0.00000000	          0.00000000	          0.00000000	          0.00000000	          5.88598444	          0.00000000	          0.00000000	          0.00000000	          0.00000000	
          0.43600000	         52.66468848	        470.43124872	         -9.52424813	         -0.83910995	          0.00000000	         -0.08166275	          0.00000000	          0.00000000	          0.00000000	          0.00000000	          0.00000000	          0.00000000	          0.00000000	          6.03522857	          0.00000000	          0.00000000	          0.00000000	          0.00000000	
          0.44000000	         53.85551179	        480.22704208	        -11.09500282	         -0.83706278	          0.00000000	         -0.08177084	          0.00000000	          0.00000000	          0.00000000	          0.00000000	          0.00000000	          0.00000000	          0.00000000	          6.13608555	          0.00000000	          0.00000000	          0.00000000	          0.00000000	
          0.44400000	         55.19098366	        489.99883179	        -13.21144819	         -0.83487318	          0.00000000	         -0.08184097	          0.00000000	          0.00000000	          0.00000000	          0.00000000	          0.00000000	          0.00000000	          0.00000000	          6.19395822	          0.00000000	          0.00000000	          0.00000000	          0.00000000	
          0.44800000	         56.67444959	        499.67895268	        -15.65188809	         -0.83254416	          0.00000000	         -0.08188676	          0.00000000	          0.00000000	          0.00000000	          0.00000000	          0.00000000	          0.00000000	          0.00000000	          6.21808094	          0.00000000	          0.00000000	          0.00000000	          0.00000000	
          0.45200000	         58.25997953	        509.27023066	        -18.14330470	         -0.83007339	          0.00000000	         -0.08192833	          0.00000000	          0.00000000	          0.00000000	          0.00000000	          0.00000000	          0.00000000	          0.00000000	          6.21972244	          0.00000000	          0.00000000	          0.00000000	          0.00000000	
          0.45600000	         59.85683940	        518.88125076	        -20.41687310	         -0.82744524	          0.00000000	         -0.08198698	          0.00000000	          0.00000000	          0.00000000	          0.00000000	          0.00000000	          0.00000000	          0.00000000	          6.21032111	          0.00000000	          0.00000000	          0.00000000	          0.00000000	
          0.46000000	         61.35975449	        528.69668914	        -22.26302703	         -0.82464237	          0.00000000	         -0.08207884	          0.00000000	          0.00000000	          0.00000000	          0.00000000	          0.00000000	          0.00000000	          0.00000000	          6.19949658	          0.00000000	          0.00000000	          0.00000000	          0.00000000	
          0.46400000	         62.69402340	        538.90711800	        -23.57257363	         -0.82167090	          0.00000000	         -0.08221142	          0.00000000	          0.00000000	          0.00000000	          0.00000000	          0.00000000	          0.00000000	          0.00000000	          6.19299557	          0.00000000	          0.00000000	          0.00000000	          0.00000000	
          0.46800000	         63.84820004	        549.66091135	        -24.35387938	         -0.81856381	          0.00000000	         -0.08238741	          0.00000000	          0.00000000	          0.00000000	          0.00000000	          0.00000000	          0.00000000	          0.00000000	          6.19095759	          0.00000000	          0.00000000	          0.00000000	          0.00000000	
          0.47200000	         64.87924477	        561.07421965	        -24.72382390	         -0.81535834	          0.00000000	         -0.08261172	          0.00000000	          0.00000000	          0.00000000	          0.00000000	          0.00000000	          0.00000000	          0.00000000	          6.18715098	          0.00000000	          0.00000000	          0.00000000	          0.00000000	
          0.47600000	         65.89904871	        573.26664503	        -24.87755938	         -0.81209513	          0.00000000	         -0.08288667	          0.00000000	          0.00000000	          0.00000000	          0.00000000	          0.00000000	          0.00000000	          0.00000000	          6.16973381	          0.00000000	          0.00000000	          0.00000000	          0.00000000	
          0.48000000	         67.05672474	        586.37407491	        -25.04592195	         -0.80883633	          0.00000000	         -0.08320658	          0.00000000	          0.00000000	          0.00000000	          0.00000000	          0.00000000	          0.00000000	          0.00000000	          6.12356988	          0.00000000	          0.00000000	          0.00000000	          0.00000000	
          0.48400000	         68.51588887	        600.53414911	        -25.44815739	         -0.80566235	          0.00000000	         -0.08356480	          0.00000000	          0.00000000	          0.00000000	          0.00000000	          0.00000000	          0.00000000	          0.00000000	          6.03349843	          0.00000000	          0.00000000	          0.00000000	          0.00000000	
          0.48800000	         70.42527868	        615.85837202	        -26.24531122	         -0.80264866	          0.00000000	         -0.08395673	          0.00000000	          0.00000000	          0.00000000	          0.00000000	          0.00000000	          0.00000000	          0.00000000	          5.88767683	          0.00000000	          0.00000000	          0.00000000	          0.00000000	
          0.49200000	         72.89592596	        632.39806952	        -27.50116612	         -0.79985491	          0.00000000	         -0.08437631	          0.00000000	          0.00000000	          0.00000000	          0.00000000	          0.00000000	          0.00000000	          0.00000000	          5.68031766	          0.00000000	          0.00000000	          0.00000000	          0.00000000	
          0.49600000	         75.99241371	        650.12817287	        -29.16047752	         -0.79732401	          0.00000000	         -0.08482629	          0.00000000	          0.00000000	          0.00000000	          0.00000000	          0.00000000	          0.00000000	          0.00000000	          5.41353785	          0.00000000	          0.00000000	          0.00000000	          0.00000000	
          0.50000000	         79.73124675	        668.96742992	        -31.04885850	         -0.79508244	          0.00000000	         -0.08531501	          0.00000000	          0.00000000	          0.00000000	          0.00000000	          0.00000000	          0.00000000	          0.00000000	          5.09826463	          0.00000000	          0.00000000	          0.00000000	          0.00000000	
          0.50400000	         84.08567644	        688.80760667	        -32.88901524	         -0.79315037	          0.00000000	         -0.08585395	          0.00000000	          0.00000000	          0.00000000	          0.00000000	          0.00000000	          0.00000000	          0.00000000	          4.75404628	          0.00000000	          0.00000000	          0.00000000	          0.00000000	
          0.50800000	         89.00053336	        709.51588903	        -34.33063658	         -0.79149661	          0.00000000	         -0.08645916	          0.00000000	          0.00000000	          0.00000000	          0.00000000	          0.00000000	          0.00000000	          0.00000000	          4.40736354	          0.00000000	          0.00000000	          0.00000000	          0.00000000	
          0.51200000	         94.40903192	        730.91438576	        -35.00321449	         -0.79008306	          0.00000000	         -0.08715400	          0.00000000	          0.00000000	          0.00000000	          0.00000000	          0.00000000	          0.00000000	          0.00000000	          4.08807113	          0.00000000	          0.00000000	          0.00000000	          0.00000000	
          0.51600000	        100.24680004	        752.76745156	        -34.59813512	         -0.78886153	          0.00000000	         -0.08795409	          0.00000000	          0.00000000	          0.00000000	          0.00000000	          0.00000000	          0.00000000	          0.00000000	          3.82422502	          0.00000000	          0.00000000	          0.00000000	          0.00000000	
          0.52000000	        106.47468686	        774.79303520	        -32.95486483	         -0.78778946	          0.00000000	         -0.08885923	          0.00000000	          0.00000000	          0.00000000	          0.00000000	          0.00000000	          0.00000000	          0.00000000	          3.63649563	          0.00000000	          0.00000000	          0.00000000	          0.00000000	
          0.52400000	        113.10838908	        796.67998803	        -30.10289648	         -0.78684188	          0.00000000	         -0.08984535	          0.00000000	          0.00000000	          0.00000000	          0.00000000	          0.00000000	          0.00000000	          0.00000000	          3.53392324	          0.00000000	          0.00000000	          0.00000000	          0.00000000	
          0.52800000	        120.21939799	        818.09132031	        -26.24107718	         -0.78601486	          0.00000000	         -0.09087579	          0.00000000	          0.00000000	          0.00000000	          0.00000000	          0.00000000	          0.00000000	          0.00000000	          3.51243028	          0.00000000	          0.00000000	          0.00000000	          0.00000000	
          0.53200000	        127.88686443	        838.66486706	        -21.68104050	         -0.78531169	          0.00000000	         -0.09191545	          0.00000000	          0.00000000	          0.00000000	          0.00000000	          0.00000000	          0.00000000	          0.00000000	          3.55641989	          0.00000000	          0.00000000	          0.00000000	          0.00000000	
          0.53600000	        136.14004230	        858.02405884	        -16.78266720	         -0.78472029	          0.00000000	         -0.09293587	          0.00000000	          0.00000000	          0.00000000	          0.00000000	          0.00000000	          0.00000000	          0.00000000	          3.64264479	          0.00000000	          0.00000000	          0.00000000	          0.00000000	
          0.54000000	        144.94258660	        875.78483861	        -11.89245827	         -0.78420766	          0.00000000	         -0.09391807	          0.00000000	          0.00000000	          0.00000000	          0.00000000	          0.00000000	          0.00000000	          0.00000000	          3.74493378	          0.00000000	          0.00000000	          0.00000000	          0.00000000	
          0.54400000	        154.21251859	        891.55392124	         -7.29800655	         -0.78374013	          0.00000000	         -0.09485242	          0.00000000	          0.00000000	          0.00000000	          0.00000000	          0.00000000	          0.00000000	          0.00000000	          3.83847996	          0.00000000	          0.00000000	          0.00000000	          0.00000000	
          0.54800000	        163.83577197	        904.93906266	         -3.20565179	         -0.78329848	          0.00000000	         -0.09573763	          0.00000000	          0.00000000	          0.00000000	          0.00000000	          0.00000000	          0.00000000	          0.00000000	          3.90298828	          0.00000000	          0.00000000	          0.00000000	          0.00000000	
